<svg width="299" height="109" viewBox="0 0 299 109" fill="none" xmlns="http://www.w3.org/2000/svg">
<path d="M17 45C1.45742 42.2733 1.00411 29.9407 2.33333 15.8889C2.77517 11.2181 4.51172 -4.27417 11.2222 5.44448C22.0825 21.1731 20.6834 38.1282 20 56.4445C19.8783 59.705 21.7311 80.6345 17 83" stroke="#131520" stroke-width="3" stroke-linecap="round"/>
<path d="M31 39C36.0914 46.0007 41.0435 42.2977 48.7778 42.5555C63.6812 43.0523 52.0577 14.1079 58 13.7778C60.7927 13.6226 72.5019 31.2131 77 33.6666C84.2688 37.6314 77.0063 21.6499 77.6667 19.8889C78.4577 17.7794 81.7093 21.8845 83.6667 23C88.4457 25.7235 89.7974 26.5661 95 27.4444C105.818 29.2709 102.861 51.8363 101.333 59.8889C100.068 66.5583 97.9437 74.2801 90.6667 76.8889C85.8191 78.6267 84.0771 74.8959 84.4444 71.2222C84.8844 66.8224 89 62.2382 89 69" stroke="#131520" stroke-width="3" stroke-linecap="round"/>
<path d="M191 67C178.408 62.6862 168.411 58.3551 163.778 44.6667C163.29 43.2245 162.735 39.4593 164.111 40.1111C169.083 42.466 178.287 64.4466 178.333 64.5556C179.233 66.6608 197.612 107 187 107" stroke="#131520" stroke-width="3" stroke-linecap="round"/>
<path d="M205 67C207.406 71.0099 213.584 84.8536 219 74.2223C221.827 68.6729 222.096 60.0458 218.333 54.7778C213.007 47.3215 201.557 65.6055 203 71C206.877 85.4979 221.399 80.8661 223.222 68.3334C224.143 62.0011 220.905 57.9154 220.222 52.1111C219.415 45.2488 229.253 62.5726 233.667 67.8889C237.784 72.8485 245.514 87.1467 247.778 81.1111C249.236 77.2234 244.034 69.4077 242.778 65.8889C240.995 60.8971 258.365 73.9818 259.444 62.1111C260.043 55.5299 249.963 45.6271 259 54.5556C265.945 61.4174 273.835 67.3274 283.111 70.6667C292.686 74.1137 290.404 70.5222 297 69" stroke="#131520" stroke-width="3" stroke-linecap="round"/>
</svg>
